<?xml version="1.0" encoding="UTF-8"?>
<svg width="376px" height="32px" viewBox="0 0 376 32" version="1.1" xmlns="http://www.w3.org/2000/svg" xmlns:xlink="http://www.w3.org/1999/xlink">
    <!-- Generator: sketchtool 54.1 (76490) - https://sketchapp.com -->
    <title>3ED4048F-8873-48B3-9887-2B81BC3C8D0A</title>
    <desc>Created with sketchtool.</desc>
    <g id="Home-etc" stroke="none" stroke-width="1" fill="none" fill-rule="evenodd">
        <g id="Home" transform="translate(-38.000000, -42.000000)" fill-rule="nonzero">
            <g id="VDB-nav">
                <g id="VolunteerConnector-logo" transform="translate(37.000000, 37.000000)">
                    <g id="Geomanist-outlines" transform="translate(1.007491, 5.227273)">
                        <path d="M17.6915358,30.3181818 L10.1958054,30.3181818 L0,1.04545456 L7.57632967,1.04545456 L13.9436706,21.8709091 L20.3110115,1.04545456 L27.8873411,1.04545456 L17.6915358,30.3181818 Z M28.3306375,19.4036369 C28.3306375,12.7545458 33.2874915,7.8200001 39.8160308,7.8200001 C46.6266676,7.8200001 51.422323,12.6709094 51.422323,19.3200006 C51.422323,25.9272736 46.5057687,30.8618192 39.8160308,30.8618192 C33.0859934,30.8618192 28.3306375,26.0109099 28.3306375,19.4036369 Z M35.0606734,19.4036359 C35.0606734,22.5818177 37.0756548,24.7145449 39.8160294,24.7145449 C42.5967037,24.7145449 44.6922843,22.4563631 44.6922843,19.3199996 C44.6922843,16.0999997 42.5564041,13.9672724 39.8160294,13.9672724 C37.0353551,13.9672724 35.0606734,16.183636 35.0606734,19.4036359 Z M54.2029955,30.3181819 L54.2029955,0.0836363618 L60.9330328,0.0836363618 L60.9330328,30.3181819 L54.2029955,30.3181819 Z M71.3706404,8.36363644 L71.3706404,21.4527276 C71.3706404,23.5018186 72.5393295,24.5890913 74.1513146,24.5890913 C76.0050973,24.5890913 77.0528876,23.2090913 77.0528876,21.4527276 L77.0528876,8.36363644 L83.782925,8.36363644 L83.782925,30.3181824 L77.2140861,30.3181824 L77.2140861,28.0600005 C76.4080936,29.3563642 74.5543108,30.8618187 71.8945355,30.8618187 C65.2853969,30.8618187 64.6406029,25.0072732 64.6406029,20.5327276 L64.6406029,8.36363644 L71.3706404,8.36363644 Z M99.9027678,30.3181824 L99.9027678,17.2290912 C99.9027678,15.1800003 98.7340787,14.0927275 97.1220937,14.0927275 C95.2683109,14.0927275 94.2205207,15.4727275 94.2205207,17.2290912 L94.2205207,30.3181824 L87.4904832,30.3181824 L87.4904832,8.36363647 L94.0593222,8.36363647 L94.0593222,10.6218183 C94.8653147,9.32545468 96.7190974,7.8200001 99.3788727,7.8200001 C105.988011,7.8200001 106.632805,13.6745457 106.632805,18.1490912 L106.632805,30.3181824 L99.9027678,30.3181824 Z M117.634607,3.7218182 L117.634607,8.36363642 L121.221274,8.36363642 L121.221274,14.009091 L117.634607,14.009091 L117.634607,22.0800002 C117.634607,24.0036366 118.883896,24.4636366 120.254083,24.4636366 C120.61678,24.4636366 120.939177,24.4636366 121.382472,24.4218184 L121.382472,30.4018184 C121.382472,30.4018184 120.495881,30.6527275 118.803296,30.6527275 C113.806143,30.6527275 110.90457,28.2690911 110.90457,21.7454547 L110.90457,14.009091 L108.849289,14.009091 L108.849289,8.36363642 L110.90457,8.36363642 L110.90457,3.7218182 L117.634607,3.7218182 Z M144.232356,21.1600007 L130.369286,21.1600007 C130.530484,23.1254553 132.343967,24.7981826 134.842544,24.7981826 C137.38142,24.7981826 138.872506,23.0836371 139.275503,22.4563643 L143.708461,26.0109099 C143.103967,27.3072736 140.202394,30.8618192 134.721645,30.8618192 C127.74981,30.8618192 123.47805,25.8854554 123.47805,19.4036369 C123.47805,12.9636367 127.669211,7.8200001 133.875353,7.8200001 C140.60539,7.8200001 144.272656,12.2945457 144.272656,19.7800006 C144.272656,20.1981824 144.272656,20.6581824 144.232356,21.1600007 Z M133.996261,13.4654547 C131.779781,13.4654547 130.731991,15.1800001 130.570793,16.7272728 L137.421729,16.7272728 C137.34113,14.9709092 136.091842,13.4654547 133.996261,13.4654547 Z M166.679247,21.1600007 L152.816176,21.1600007 C152.977374,23.1254553 154.790857,24.7981826 157.289434,24.7981826 C159.828311,24.7981826 161.319397,23.0836371 161.722393,22.4563643 L166.155352,26.0109099 C165.550857,27.3072736 162.649284,30.8618192 157.168535,30.8618192 C150.1967,30.8618192 145.92494,25.8854554 145.92494,19.4036369 C145.92494,12.9636367 150.116101,7.8200001 156.322243,7.8200001 C163.05228,7.8200001 166.719546,12.2945457 166.719546,19.7800006 C166.719546,20.1981824 166.719546,20.6581824 166.679247,21.1600007 Z M156.443151,13.4654547 C154.226672,13.4654547 153.178881,15.1800001 153.017683,16.7272728 L159.868619,16.7272728 C159.78802,14.9709092 158.538732,13.4654547 156.443151,13.4654547 Z M181.590116,7.8200001 L181.590116,14.9290912 C181.308019,14.887273 180.985622,14.8454548 180.502026,14.8454548 C177.237756,14.8454548 176.149667,17.3127276 176.149667,20.616364 L176.149667,30.3181824 L169.419629,30.3181824 L169.419629,8.36363647 L175.988468,8.36363647 L175.988468,11.2909093 C176.995959,9.15818194 178.97064,7.8200001 181.590116,7.8200001 Z" id="Volunteer" fill="#0C0C0C" opacity="0.75"></path>
                        <path d="M200.36974,30.8618191 C191.262024,30.8618191 185.458878,24.2545462 185.458878,15.6400005 C185.458878,7.06727292 191.584421,0.501818171 200.36974,0.501818171 C203.875807,0.501818171 206.575882,1.54727275 208.590863,2.96909098 L206.656481,9.24181845 C205.165395,8.19636387 203.029515,7.19272747 200.611537,7.19272747 C195.453185,7.19272747 192.632212,11.0818185 192.632212,15.6400005 C192.632212,20.1981824 195.453185,24.1709098 200.611537,24.1709098 C203.029515,24.1709098 205.286294,23.1672734 206.77738,22.1218189 L208.711762,28.3945463 C206.696781,29.8163645 203.875807,30.8618191 200.36974,30.8618191 Z M210.605844,19.4036368 C210.605844,12.7545456 215.562698,7.81999999 222.091237,7.81999999 C228.901874,7.81999999 233.697529,12.6709093 233.697529,19.3200005 C233.697529,25.9272735 228.780975,30.8618191 222.091237,30.8618191 C215.361199,30.8618191 210.605844,26.0109098 210.605844,19.4036368 Z M217.335881,19.4036363 C217.335881,22.5818181 219.350863,24.7145453 222.091237,24.7145453 C224.871912,24.7145453 226.967492,22.4563635 226.967492,19.32 C226.967492,16.1000001 224.831612,13.9672728 222.091237,13.9672728 C219.310563,13.9672728 217.335881,16.1836364 217.335881,19.4036363 Z M248.890488,30.3181823 L248.890488,17.2290911 C248.890488,15.1800001 247.721799,14.0927274 246.109814,14.0927274 C244.256031,14.0927274 243.208241,15.4727274 243.208241,17.2290911 L243.208241,30.3181823 L236.478203,30.3181823 L236.478203,8.36363636 L243.047042,8.36363636 L243.047042,10.6218182 C243.853035,9.32545457 245.706818,7.81999999 248.366593,7.81999999 C254.975732,7.81999999 255.620526,13.6745456 255.620526,18.1490911 L255.620526,30.3181823 L248.890488,30.3181823 Z M271.740376,30.3181823 L271.740376,17.2290911 C271.740376,15.1800001 270.571687,14.0927274 268.959702,14.0927274 C267.105919,14.0927274 266.058129,15.4727274 266.058129,17.2290911 L266.058129,30.3181823 L259.328091,30.3181823 L259.328091,8.36363636 L265.89693,8.36363636 L265.89693,10.6218182 C266.702923,9.32545457 268.556706,7.81999999 271.216481,7.81999999 C277.82562,7.81999999 278.470414,13.6745456 278.470414,18.1490911 L278.470414,30.3181823 L271.740376,30.3181823 Z M301.884495,21.1600005 L288.021424,21.1600005 C288.182622,23.1254552 289.996106,24.7981825 292.494682,24.7981825 C295.033559,24.7981825 296.524645,23.083637 296.927641,22.4563642 L301.3606,26.0109098 C300.756105,27.3072735 297.854532,30.8618191 292.373783,30.8618191 C285.401948,30.8618191 281.130188,25.8854553 281.130188,19.4036368 C281.130188,12.9636366 285.321349,7.81999999 291.527491,7.81999999 C298.257529,7.81999999 301.924794,12.2945456 301.924794,19.7800005 C301.924794,20.1981823 301.924794,20.6581823 301.884495,21.1600005 Z M291.648391,13.4654541 C289.431912,13.4654541 288.384122,15.1799995 288.222923,16.7272722 L295.07386,16.7272722 C294.99326,14.9709086 293.743972,13.4654541 291.648391,13.4654541 Z M315.465467,24.7145461 C317.037153,24.7145461 318.528239,23.9618188 319.45513,23.1672734 L321.228314,28.8963645 C319.817827,29.9000009 317.681947,30.8618191 315.022171,30.8618191 C308.292134,30.8618191 303.536778,26.0945462 303.536778,19.3618187 C303.536778,12.6290911 308.453332,7.81999999 314.981872,7.81999999 C317.722246,7.81999999 319.777527,8.74000003 321.268613,9.8272728 L319.45513,15.7236367 C318.286441,14.7200003 316.795355,14.0927275 315.223669,14.0927275 C312.039999,14.0927275 310.266815,16.3927276 310.266815,19.3200005 C310.266815,22.5400006 312.362396,24.7145461 315.465467,24.7145461 Z M331.22263,3.72181809 L331.22263,8.36363631 L334.809297,8.36363631 L334.809297,14.0090909 L331.22263,14.0090909 L331.22263,22.0800001 C331.22263,24.0036365 332.471918,24.4636365 333.842106,24.4636365 C334.204802,24.4636365 334.527199,24.4636365 334.970495,24.4218183 L334.970495,30.4018183 C334.970495,30.4018183 334.083903,30.6527274 332.391319,30.6527274 C327.394166,30.6527274 324.492593,28.269091 324.492593,21.7454546 L324.492593,14.0090909 L322.437312,14.0090909 L322.437312,8.36363631 L324.492593,8.36363631 L324.492593,3.72181809 L331.22263,3.72181809 Z M337.025772,19.4036368 C337.025772,12.7545456 341.982626,7.81999999 348.511165,7.81999999 C355.321802,7.81999999 360.117458,12.6709093 360.117458,19.3200005 C360.117458,25.9272735 355.200903,30.8618191 348.511165,30.8618191 C341.781128,30.8618191 337.025772,26.0109098 337.025772,19.4036368 Z M343.755802,19.4036363 C343.755802,22.5818181 345.770784,24.7145453 348.511158,24.7145453 C351.291832,24.7145453 353.387413,22.4563635 353.387413,19.32 C353.387413,16.1000001 351.251533,13.9672728 348.511158,13.9672728 C345.730484,13.9672728 343.755802,16.1836364 343.755802,19.4036363 Z M375.068611,7.81999999 L375.068611,14.929091 C374.786514,14.8872729 374.464117,14.8454547 373.980521,14.8454547 C370.716252,14.8454547 369.628162,17.3127275 369.628162,20.6163639 L369.628162,30.3181823 L362.898124,30.3181823 L362.898124,8.36363636 L369.466963,8.36363636 L369.466963,11.2909092 C370.474454,9.15818184 372.449135,7.81999999 375.068611,7.81999999 Z" id="Connector" fill="#1DABB3" opacity="0.900000036"></path>
                    </g>
                </g>
            </g>
        </g>
    </g>
</svg>